<svg id="Layer_1" data-name="Layer 1" xmlns="http://www.w3.org/2000/svg" xmlns:xlink="http://www.w3.org/1999/xlink" viewBox="0 0 918.61 280.22"><defs><style>.cls-1{fill:#1b74e2;}.cls-2{fill:#004fbe;}.cls-3{fill:url(#linear-gradient);}</style><linearGradient id="linear-gradient" x1="165.39" y1="-0.8" x2="165.39" y2="182.26" gradientUnits="userSpaceOnUse"><stop offset="0" stop-color="#1b74e2"/><stop offset="1" stop-color="#004fbe"/></linearGradient></defs><polygon class="cls-1" points="330.77 95.49 330.77 113.34 165.39 208.82 165.39 181.31 322.4 90.66 330.77 95.49"/><polygon class="cls-2" points="165.39 181.31 165.39 208.82 0 113.34 0 95.49 8.37 90.66 165.39 181.31"/><polygon class="cls-1" points="165.39 226.67 330.77 131.19 330.77 149.04 165.39 244.52 165.39 226.67"/><polygon class="cls-2" points="165.39 244.52 0 149.04 0 131.19 165.39 226.67 165.39 244.52"/><polygon class="cls-1" points="165.39 262.37 330.77 166.89 330.77 184.74 165.39 280.22 165.39 262.37"/><polygon class="cls-2" points="165.39 280.22 0 184.74 0 166.89 165.39 262.37 165.39 280.22"/><polygon class="cls-3" points="330.77 95.49 165.39 190.97 0 95.49 8.37 90.66 165.39 0 322.4 90.66 330.77 95.49"/><path class="cls-1" d="M695.44,240.63V106.08h23.1V240.63Z" transform="translate(-40.7 -34.89)"/><path class="cls-1" d="M751.06,180.72l45.2,59.3h28.41l-40.9-54.41a36.48,36.48,0,0,0,7.06-1,53.87,53.87,0,0,0,8.5-2.45,39.35,39.35,0,0,0,17.16-12.67A36.92,36.92,0,0,0,821,130.92a39.88,39.88,0,0,0-10-13.19,46,46,0,0,0-15.24-9.1,53.67,53.67,0,0,0-18.5-3.17H751.06v23.11h26.18q11.67,0,18.4,6.14c3.81,3.41,5.74,7.36,5.74,11.85a14.12,14.12,0,0,1-3.29,9,19,19,0,0,1-7.76,5.93q-7.16,3.28-19.23,3.27h-20Z" transform="translate(-40.7 -34.89)"/><path class="cls-1" d="M906.34,241.25a52.49,52.49,0,0,1-20.55-4.09,51.42,51.42,0,0,1-17.07-11.66,54.21,54.21,0,0,1-15.55-38v-82h23.11v82a31.93,31.93,0,0,0,2.25,12,30.35,30.35,0,0,0,27.81,18.91A28.9,28.9,0,0,0,917.79,216a28.35,28.35,0,0,0,9.61-6.65,29.1,29.1,0,0,0,6.55-9.91,31.93,31.93,0,0,0,2.25-12v-82h23.1v82a53.93,53.93,0,0,1-4,20.45A56.14,56.14,0,0,1,944,225.5a54,54,0,0,1-17.28,11.66A52.06,52.06,0,0,1,906.34,241.25Z" transform="translate(-40.7 -34.89)"/><path class="cls-1" d="M659.14,130a42.37,42.37,0,0,0-10.43-13.59,47.58,47.58,0,0,0-14.82-8.49,50.79,50.79,0,0,0-17.28-3h-50.1v23.11h50.1q10.21,0,17,5.73,6.13,5.11,6.14,12.27a15.1,15.1,0,0,1-6.14,12.26q-6.54,5.94-17,5.94h-50.1v75.25h23.1l-.2-52.15h27.2a50.78,50.78,0,0,0,17.28-3,47.78,47.78,0,0,0,14.82-8.49,45.06,45.06,0,0,0,10.43-13.7,37.08,37.08,0,0,0,0-32.21Z" transform="translate(-40.7 -34.89)"/><path class="cls-1" d="M480.62,105.46,418.25,240h25.36L480,161.29,514.77,240h25.15Z" transform="translate(-40.7 -34.89)"/></svg>